<svg xmlns="http://www.w3.org/2000/svg" viewBox="0 0 38.17 38.17">
  <title>Asset 5</title>
  <g id="Layer_2" data-name="Layer 2">
    <g id="Layer_1-2" data-name="Layer 1">
      <path id="Codepen" d="M38.16,13.06a.64.64,0,0,0,0-.07.58.58,0,0,0,0-.14.24.24,0,0,0,0-.08.56.56,0,0,1,0-.12,3,3,0,0,0-.1-.19l0-.08a.86.86,0,0,1-.07-.1l-.06-.07-.08-.09-.06-.06-.1-.08-.07-.05,0,0L20,.28a1.63,1.63,0,0,0-1.82,0L.73,11.91l0,0L.63,12l-.09.08-.07.06-.08.09-.06.07a.61.61,0,0,1-.07.1s0,0,0,.08l-.06.11,0,.08,0,.12a.19.19,0,0,0,0,.08L0,13a.15.15,0,0,0,0,.07,1.49,1.49,0,0,0,0,.21V24.9a1.8,1.8,0,0,0,0,.22s0,0,0,.07l0,.13a.31.31,0,0,1,0,.08l.05.12,0,.08.06.11,0,.08a.36.36,0,0,1,.07.1L.39,26l.08.09.07.06.09.08.07,0,0,0L18.18,37.9a1.64,1.64,0,0,0,.91.27A1.69,1.69,0,0,0,20,37.9L37.44,26.27l0,0,.07-.06.1-.08.06-.06.08-.09.06-.07.07-.1,0-.08A.39.39,0,0,0,38,25.6l0-.07a.42.42,0,0,1,0-.12.31.31,0,0,0,0-.08.35.35,0,0,0,0-.14s0-.05,0-.07,0-.15,0-.22V13.27A1.48,1.48,0,0,0,38.16,13.06ZM20.73,4.71l12.85,8.56-5.74,3.84-7.11-4.76V4.71Zm-3.28,0v7.64l-7.12,4.76L4.59,13.27ZM3.28,16.34l4.1,2.75-4.1,2.74ZM17.45,33.47,4.59,24.9l5.74-3.84,7.12,4.76ZM19.09,23l-5.8-3.88,5.8-3.88,5.8,3.88Zm1.64,10.5V25.82l7.11-4.76,5.74,3.84ZM34.89,21.83l-4.1-2.74,4.1-2.75Z" fill="#acacac"/>
    </g>
  </g>
</svg>
