<svg xmlns="http://www.w3.org/2000/svg" viewBox="0 0 27.66 34">
  <title>Asset 4</title>
  <g id="Layer_2" data-name="Layer 2">
    <g id="Layer_1-2" data-name="Layer 1">
      <path d="M24.8.07c-1.16-.41-4,1-5.62,2.07-2.56-.74-8-.67-10,.19C5.41-.31,3.43.09,3.43.09a7.68,7.68,0,0,0-.34,5.57A7.42,7.42,0,0,0,.94,11.2a13.45,13.45,0,0,0,.63,4.37,13.54,13.54,0,0,0,.61,1.36C3.59,19.45,6.31,21,10.9,21.45a3.82,3.82,0,0,0-1.55,2.48,5.1,5.1,0,0,1-3.77.3c-1.8-.56-2.49-4.07-5.19-3.57-.58.11-.47.49,0,.81A5.26,5.26,0,0,1,2.62,24,4.43,4.43,0,0,0,7.1,27a13.78,13.78,0,0,0,2.05-.14s0,2.73,0,3.79c0,1.23-1.69,1.57-1.69,2.16,0,.24.56.26,1,.26.88,0,2.72-.73,2.72-2,0-1,0-4.41,0-5A1.9,1.9,0,0,1,12,24.37s.09,6.94-.17,7.87c-.3,1.1-.85.94-.85,1.43,0,.73,2.22.18,3-1.41.57-1.24.32-8,.32-8l.6,0s0,3.12,0,4.55-.13,3.34.77,4.22c.58.58,2.48,1.59,2.48.66,0-.54-1-1-1-2.44V24.47c.83,0,.71,2.21.71,2.21l.06,4.1a2.08,2.08,0,0,0,1.64,2.12c.65.22,2,.28,2.09-.09s-1.66-.93-1.68-2.09c0-.7,0-1.12,0-4.18s-.42-4.21-1.88-5.11c4.5-.45,7.3-1.55,8.65-4.49a4.37,4.37,0,0,0,.5-1.37,16,16,0,0,0,.5-4,9,9,0,0,0-2.45-6.4C25.79,2,25.11.57,24.8.07Z" fill="#acacac"/>
    </g>
  </g>
</svg>
